<?xml version="1.0" standalone="no"?>
<!DOCTYPE svg PUBLIC "-//W3C//DTD SVG 20010904//EN"
 "http://www.w3.org/TR/2001/REC-SVG-20010904/DTD/svg10.dtd">
<svg version="1.0" xmlns="http://www.w3.org/2000/svg"
 width="221.000000pt" height="228.000000pt" viewBox="0 0 221.000000 228.000000"
 preserveAspectRatio="xMidYMid meet">
<metadata>
Created by potrace 1.16, written by Peter Selinger 2001-2019
</metadata>
<g transform="translate(0.000000,228.000000) scale(0.100000,-0.100000)"
fill="#000000" stroke="none">
<path d="M672 2200 c-130 -31 -166 -250 -51 -312 46 -24 269 -27 269 -3 0 12
-18 15 -106 15 -107 0 -131 6 -171 43 -33 29 -32 120 0 168 37 56 52 59 275
59 l203 0 -3 -42 c-3 -38 -6 -43 -28 -46 -64 -6 -129 -25 -144 -40 -12 -14
-16 -45 -18 -137 l-3 -120 -325 -5 -325 -5 -3 -142 -3 -143 -34 -27 -35 -28 0
-152 0 -153 -50 0 -50 0 0 -225 0 -225 35 0 35 0 0 -168 0 -168 -30 -29 c-30
-28 -30 -30 -30 -132 l0 -103 230 0 230 0 52 65 53 65 461 0 460 0 52 -65 53
-65 229 0 230 0 0 103 c0 102 0 104 -30 132 l-30 29 0 168 0 168 35 0 35 0 0
225 0 225 -55 0 -55 0 0 148 0 147 -35 44 -35 44 0 133 0 133 -72 3 -73 3 2
63 1 62 -249 0 -249 0 0 51 c0 28 -4 59 -10 69 -11 21 -86 48 -145 52 l-40 3
-3 56 -3 56 -82 6 c-109 9 -324 7 -365 -3z m575 -172 c27 -13 28 -16 36 -118
4 -58 5 -111 2 -117 -2 -8 -23 -13 -50 -13 l-45 0 0 45 c0 41 -2 45 -25 45
-23 0 -25 -4 -25 -45 0 -45 0 -45 -35 -45 -35 0 -35 0 -35 45 0 41 -2 45 -25
45 -23 0 -25 -4 -25 -45 l0 -45 -45 0 -45 0 0 115 c0 127 1 129 80 146 50 11
205 3 237 -13z m533 -198 l0 -50 -230 0 -230 0 0 43 c0 24 3 47 7 50 3 4 107
7 230 7 l223 0 0 -50z m-1400 -395 l0 -305 -85 0 -85 0 0 60 0 60 40 0 c35 0
40 3 40 23 0 20 -4 22 -40 19 l-40 -4 0 64 c0 60 2 66 35 98 l35 34 0 128 0
128 50 0 50 0 0 -305z m570 240 l0 -65 -172 -1 c-95 0 -215 -3 -265 -5 l-93
-5 0 70 0 71 265 0 265 0 0 -65z m270 -65 l0 -129 -56 -42 c-63 -46 -65 -46
-141 10 l-43 31 0 130 0 130 120 0 120 0 0 -130z m560 58 l0 -71 -97 6 c-54 4
-173 7 -265 7 l-168 0 0 65 0 65 265 0 265 0 0 -72z m140 -47 l0 -118 40 -51
c36 -45 40 -56 40 -106 l0 -56 -55 0 c-48 0 -55 -2 -55 -20 0 -18 7 -20 55
-20 l56 0 -3 -57 -3 -58 -87 -3 c-85 -3 -88 -2 -90 20 -1 13 -2 150 -2 305
l-1 283 53 0 52 0 0 -119z m-970 -110 l0 -59 64 -42 c58 -37 65 -45 68 -78 2
-26 8 -38 21 -40 14 -3 17 4 17 35 0 35 5 41 65 83 l65 45 0 58 0 57 265 0
265 0 0 -220 0 -220 -110 0 -110 0 0 46 c0 41 -2 45 -22 42 -20 -3 -23 -9 -23
-43 l0 -40 -192 -3 -192 -2 -3 42 c-2 35 -7 43 -23 43 -16 0 -21 -8 -23 -42
l-3 -43 -195 0 -194 0 0 45 c0 38 -3 45 -19 45 -16 0 -20 -8 -23 -42 l-3 -43
-112 -3 -113 -3 0 221 0 220 265 0 265 0 0 -59z m1150 -496 l0 -85 -245 0
-245 0 0 -23 0 -23 218 2 c119 2 229 0 245 -2 27 -6 27 -6 27 -85 l0 -79 -995
0 -995 0 0 190 0 190 995 0 995 0 0 -85z m-1010 -550 l0 -215 -229 0 -229 0
-57 -70 -57 -70 -199 0 -199 0 0 83 c0 79 1 85 30 112 l30 29 0 173 0 173 455
0 455 0 0 -215z m940 42 l0 -173 30 -29 c29 -27 30 -33 30 -112 l0 -83 -199 0
-198 0 -54 70 -54 69 -232 1 -233 0 0 208 c0 115 3 212 7 215 3 4 208 7 455 7
l448 0 0 -173z"/>
<path d="M286 969 c-28 -22 -36 -72 -16 -108 16 -31 65 -46 100 -31 37 15 50
37 50 83 0 68 -78 100 -134 56z"/>
<path d="M585 965 c-48 -47 -18 -128 52 -141 27 -5 37 -1 64 25 27 28 31 37
26 69 -12 70 -92 97 -142 47z"/>
<path d="M898 970 c-74 -57 -4 -175 82 -140 37 15 50 37 50 84 0 65 -79 99
-132 56z"/>
<path d="M1500 556 c-8 -11 -24 -13 -60 -9 -46 5 -51 4 -85 -30 -45 -45 -49
-99 -9 -146 76 -90 214 -11 183 104 -8 26 -7 41 0 48 16 16 14 47 -3 47 -7 0
-19 -6 -26 -14z m-20 -68 c26 -28 26 -58 -1 -92 -27 -34 -71 -35 -104 -1 -30
30 -31 54 -4 89 27 34 79 36 109 4z"/>
<path d="M1800 555 c-9 -11 -23 -13 -50 -9 -49 8 -96 -17 -117 -61 -33 -68 22
-155 98 -155 68 0 126 83 103 148 -8 20 -7 33 4 49 23 36 -10 61 -38 28z m-18
-62 c27 -24 24 -87 -4 -107 -51 -36 -118 -3 -118 56 0 58 78 91 122 51z"/>
</g>
</svg>
